# xmcd
#
# Track frame offsets:
#	150
#	16815
#	47758
#	72066
#	87133
#	102952
#	122606
#	137983
#	153851
#	167616
#	181518
#	206284
#
# Disc length: 2936 seconds
#
# Revision: 2
# Processed by: cddbd v1.5.1PL2 Copyright (c) Steve Scherf et al.
# Submitted via: audiograbber 1.83.01
#
DISCID=8a0b760c
DTITLE=Various Artist - Best of the 70s - Disc 3
DYEAR=2004
DGENRE=Classic Rock
TTITLE0=Heatwave - Boogie Nights
TTITLE1=Atlanta Rhythm Section - So Into You
TTITLE2=Taste of Honey - Boogie Oogie Oogie
TTITLE3=Bishop, Stephen - On and On
TTITLE4=Exile - Kiss You All Over
TTITLE5=Gold, Andrew - Lonely Boy
TTITLE6=Egan, Walter - Magnet and Steel
TTITLE7=Ward, Anita - Ring My Bell
TTITLE8=Miracles - Love Machine
TTITLE9=Nightingale, Maxine - Right Back Where We Started From
TTITLE10=Atlanta Rhythm Section - Imaginary Lover
TTITLE11=Andrea True Connection - More, More, More
EXTD=Submitted by Robert Orin Charles Kilroy.
EXTT0=
EXTT1=
EXTT2=
EXTT3=
EXTT4=
EXTT5=
EXTT6=
EXTT7=
EXTT8=
EXTT9=
EXTT10=
EXTT11=
PLAYORDER=
